<svg xmlns="http://www.w3.org/2000/svg" viewBox="0 0 200 56" fill="none">
  <!-- Gold tree icon -->
  <g transform="translate(4, 4)">
    <circle cx="24" cy="24" r="22" stroke="#D4AF37" stroke-width="0.8" opacity="0.35"/>
    <path d="M24 42V30M24 30C24 30 17 25 15 18C13 11 17 7 24 9C31 7 35 11 33 18C31 25 24 30 24 30Z" stroke="#D4AF37" stroke-width="1.4" stroke-linecap="round"/>
    <path d="M24 30C24 30 19 23 19 16C19 11 21 9 24 11C27 9 29 11 29 16C29 23 24 30 24 30Z" stroke="#D4AF37" stroke-width="1" stroke-linecap="round" opacity="0.75"/>
    <path d="M19 34C16 32 12 32 10 34" stroke="#D4AF37" stroke-width="0.9" stroke-linecap="round" opacity="0.6"/>
    <path d="M29 34C32 32 36 32 38 34" stroke="#D4AF37" stroke-width="0.9" stroke-linecap="round" opacity="0.6"/>
    <circle cx="24" cy="15" r="1.4" fill="#D4AF37"/>
    <circle cx="17" cy="21" r="1" fill="#D4AF37" opacity="0.7"/>
    <circle cx="31" cy="21" r="1" fill="#D4AF37" opacity="0.7"/>
  </g>
  <!-- TGM text -->
  <text x="58" y="36" font-family="Georgia, 'Times New Roman', serif" font-size="28" font-weight="600" fill="#D4AF37" letter-spacing="4">TGM</text>
</svg>
